<svg width="90" height="15" viewBox="0 0 90 15" fill="none" xmlns="http://www.w3.org/2000/svg">
<path d="M4.72 6.56H6.68C7.26667 6.56 7.72667 6.42667 8.06 6.16C8.40667 5.89333 8.58 5.46667 8.58 4.88C8.58 4.56 8.5 4.3 8.34 4.1C8.18 3.9 7.97333 3.74667 7.72 3.64C7.48 3.53333 7.21333 3.46 6.92 3.42C6.64 3.38 6.35333 3.36 6.06 3.36H4.72V6.56ZM4.72 14.4H6.85453e-07V9.53674e-07H6.94C8.96667 9.53674e-07 10.4933 0.433334 11.52 1.3C12.56 2.15333 13.08 3.34 13.08 4.86C13.08 6.46 12.5867 7.70667 11.6 8.6C10.6133 9.48 9.11333 9.92 7.1 9.92H4.72V14.4ZM14.3336 14.4V3.92H18.1136V6.04H18.1536C18.7269 4.42667 19.8003 3.62 21.3736 3.62C21.4536 3.62 21.5736 3.63333 21.7336 3.66C21.8536 3.67333 21.9136 3.68 21.9136 3.68V7.84C21.8603 7.82667 21.7669 7.81333 21.6336 7.8C21.3803 7.74667 21.1869 7.72 21.0536 7.72C20.1736 7.72 19.5269 7.95333 19.1136 8.42C18.7003 8.88667 18.4936 9.67333 18.4936 10.78V14.4H14.3336ZM28.5288 6.42C28.1954 6.42 27.9021 6.5 27.6488 6.66C27.4088 6.82 27.2221 7.02667 27.0888 7.28C26.9554 7.53333 26.8554 7.81333 26.7888 8.12C26.7221 8.42667 26.6888 8.74 26.6888 9.06C26.6888 10.02 26.8488 10.7333 27.1688 11.2C27.4888 11.6667 27.9288 11.9 28.4888 11.9C29.0621 11.9 29.5021 11.6667 29.8088 11.2C30.1288 10.7333 30.2888 10.02 30.2888 9.06C30.2888 8.28667 30.1288 7.65333 29.8088 7.16C29.5021 6.66667 29.0754 6.42 28.5288 6.42ZM22.5288 9.28C22.5288 7.49333 23.0688 6.10667 24.1488 5.12C25.2288 4.12 26.6688 3.62 28.4688 3.62C30.3088 3.62 31.7621 4.12 32.8288 5.12C33.9088 6.10667 34.4488 7.42 34.4488 9.06C34.4488 9.99333 34.2954 10.82 33.9888 11.54C33.6954 12.2467 33.2821 12.8333 32.7488 13.3C32.2154 13.7667 31.5821 14.12 30.8488 14.36C30.1288 14.5867 29.3421 14.7 28.4888 14.7C26.7421 14.7 25.3088 14.2333 24.1888 13.3C23.0821 12.3533 22.5288 11.0133 22.5288 9.28ZM36.0686 14.4V3.92H39.8886V5.48C40.1953 5.01333 40.6486 4.58667 41.2486 4.2C41.8619 3.81333 42.5153 3.62 43.2086 3.62C44.1019 3.62 44.8286 3.79333 45.3886 4.14C45.9486 4.47333 46.3619 4.94 46.6286 5.54C47.5486 4.26 48.7553 3.62 50.2486 3.62C51.7153 3.62 52.7486 4.00667 53.3486 4.78C53.9619 5.54 54.2686 6.68 54.2686 8.2V14.4H50.1086V9.06C50.1086 8.27333 50.0086 7.72 49.8086 7.4C49.6086 7.06667 49.2419 6.9 48.7086 6.9C48.1486 6.9 47.7619 7.10667 47.5486 7.52C47.3486 7.92 47.2486 8.48667 47.2486 9.22V14.4H43.0886V9.06C43.0886 8.27333 42.9886 7.72 42.7886 7.4C42.5886 7.06667 42.2219 6.9 41.6886 6.9C41.1286 6.9 40.7419 7.10667 40.5286 7.52C40.3286 7.92 40.2286 8.48667 40.2286 9.22V14.4H36.0686ZM61.8686 6.42C61.5353 6.42 61.2419 6.5 60.9886 6.66C60.7486 6.82 60.5619 7.02667 60.4286 7.28C60.2953 7.53333 60.1953 7.81333 60.1286 8.12C60.0619 8.42667 60.0286 8.74 60.0286 9.06C60.0286 10.02 60.1886 10.7333 60.5086 11.2C60.8286 11.6667 61.2686 11.9 61.8286 11.9C62.4019 11.9 62.8419 11.6667 63.1486 11.2C63.4686 10.7333 63.6286 10.02 63.6286 9.06C63.6286 8.28667 63.4686 7.65333 63.1486 7.16C62.8419 6.66667 62.4153 6.42 61.8686 6.42ZM55.8686 9.28C55.8686 7.49333 56.4086 6.10667 57.4886 5.12C58.5686 4.12 60.0086 3.62 61.8086 3.62C63.6486 3.62 65.1019 4.12 66.1686 5.12C67.2486 6.10667 67.7886 7.42 67.7886 9.06C67.7886 9.99333 67.6353 10.82 67.3286 11.54C67.0353 12.2467 66.6219 12.8333 66.0886 13.3C65.5553 13.7667 64.9219 14.12 64.1886 14.36C63.4686 14.5867 62.6819 14.7 61.8286 14.7C60.0819 14.7 58.6486 14.2333 57.5286 13.3C56.4219 12.3533 55.8686 11.0133 55.8686 9.28ZM76.3884 11.42V14.4C75.3884 14.4533 74.6018 14.48 74.0284 14.48C73.1751 14.48 72.5018 14.4267 72.0084 14.32C71.5284 14.2 71.1618 14.0067 70.9084 13.74C70.6551 13.46 70.4818 13.0867 70.3884 12.62C70.3084 12.1533 70.2684 11.5133 70.2684 10.7V6.32H68.7884V3.92H70.3284V0.660001H74.4284V3.92H76.4284V6.32H74.4284V10.12C74.4284 10.6267 74.5084 10.9733 74.6684 11.16C74.8284 11.3333 75.1818 11.42 75.7284 11.42H76.3884ZM78.4352 14.4V3.92H82.2152V6.04H82.2552C82.8285 4.42667 83.9018 3.62 85.4752 3.62C85.5552 3.62 85.6752 3.63333 85.8352 3.66C85.9552 3.67333 86.0152 3.68 86.0152 3.68V7.84C85.9618 7.82667 85.8685 7.81333 85.7352 7.8C85.4818 7.74667 85.2885 7.72 85.1552 7.72C84.2752 7.72 83.6285 7.95333 83.2152 8.42C82.8018 8.88667 82.5952 9.67333 82.5952 10.78V14.4H78.4352ZM89.8859 14.4H85.6459V10.28H89.8859V14.4Z" fill="#F06C28"/>
</svg>
